{"title":"THEM.1954.DVDRip.MKV.480p.MPEG.AC3-Agent666","uid":11030127,"size":3762588692,"categoryP":"video","categoryS":"movies","magnet":"?xt=urn:btih:29e66becacef1301adc7f5a79a22056d7930ea8d&amp;dn=THEM.1954.DVDRip.MKV.480p.MPEG.AC3-Agent666&amp;tr=udp%3A%2F%2Ftracker.openbittorrent.com%3A80&amp;tr=udp%3A%2F%2Fopen.demonii.com%3A1337&amp;tr=udp%3A%2F%2Ftracker.coppersurfer.tk%3A6969&amp;tr=udp%3A%2F%2Fexodus.desync.com%3A6969","seeders":2,"leechers":0,"uploader":"Agent666","files":-1,"time":1410715190,"description":"THEM.1954.DVDRip.MKV.480p.MPEG.AC3-Agent666.mkv\n\nâ–  RIPPED DVD -&gt; MKV, 5423 Kbs\n\nThe earliest atomic tests in New Mexico cause common ants to mutate into giant man-eating monsters that threaten civilization.\n\nâ– â– â– â– â– â– â– â– â– â– â– â– â– â– â– â– â– â– â– â– â– â– â– â– â– â– â– â– â– â– â– â–  M O V I E :\n\nâ–  THEM! (1954)\n &lt;a href=&quot;\nhttp://www.imdb.com/title/tt0047573/&quot; rel=&quot;nofollow&quot; target=&quot;_NEW&quot;&gt;\nhttp://www.imdb.com/title/tt0047573/&lt;/a&gt;\n\nâ–  Category:          : Horror - Sci-Fi\nâ–  Actors             : James Whitmore (Police Sgt. Ben Peterson)\n                     : James Arness (FBI Agent Robert Graham)\n                     : Edmund Gwenn (Dr. Harold Medford)\n                     : Joan Weldon (Dr. Patricia 'Pat' Medford)\n                     : Onslow Stevens (Brig. Gen. Robert O'Brien)\nâ–  Director           : Gordon Douglas\nâ–  Writers            : George Worthing Yates, Russell S. Hughes, Ted Sherdeman\nâ–  Producer           : David Weisbart\nâ–  Format             : Black &amp; White, Full Screen, NTSC\nâ–  Language           : English\nâ–  Aspect Ratio       : 1.33:1\nâ–  Rated              : NR (Not Rated)\nâ–  Studio             : Warner Home Video\nâ–  Movie Release Date : June 19, 1954 (USA)\nâ–  DVD Release Date   : August 6, 2002\nâ–  Run Time           : 94 minutes\n\nâ– â– â– â– â– â– â– â– â– â– â– â– â– â– â– â– â– â– â– â– â– â– â– â– â– â– â– â– â– â– â– â–  V I D E O :\n\nâ–  GENERAL:\n\nFormat                                   : Matroska\nFormat version                           : Version 4 / Version 2\nFile size                                : 3.50 GiB\nDuration                                 : 1h 32mn\nOverall bit rate mode                    : Variable\nOverall bit rate                         : 5 423 Kbps\nEncoded date                             : UTC 2014-09-13 16:21:33\nWriting application                      : mkvmerge v7.0.0 ('Where We Going') 64bit\nWriting library                          : libebml v1.3.0 + libmatroska v1.4.1\n\nâ–  VIDEO:\n\nID                                       : 1\nFormat                                   : MPEG Video\nFormat version                           : Version 2\nFormat profile                           : Main@Main\nFormat settings, BVOP                    : Yes\nFormat settings, Matrix                  : Custom\nCodec ID                                 : V_MPEG2\nCodec ID/Info                            : MPEG 1 or 2 Video\nDuration                                 : 1h 32mn\nBit rate mode                            : Variable\nBit rate                                 : 5 123 Kbps\nMaximum bit rate                         : 8 500 Kbps\nWidth                                    : 720 pixels\nHeight                                   : 480 pixels\nDisplay aspect ratio                     : 4:3\nFrame rate mode                          : Constant\nFrame rate                               : 29.970 fps\nStandard                                 : NTSC\nColor space                              : YUV\nChroma subsampling                       : 4:2:0\nBit depth                                : 8 bits\nScan type                                : Interlaced\nScan order                               : Top Field First\nCompression mode                         : Lossy\nBits/(Pixel*Frame)                       : 0.495\nStream size                              : 3.31 GiB (94%)\nDefault                                  : Yes\nForced                                   : No\n\nâ–  AUDIO:\n\nID                                       : 2\nFormat                                   : AC-3\nFormat/Info                              : Audio Coding 3\nMode extension                           : CM (complete main)\nFormat settings, Endianness              : Big\nCodec ID                                 : A_AC3\nDuration                                 : 1h 32mn\nBit rate mode                            : Constant\nBit rate                                 : 192 Kbps\nChannel(s)                               : 1 channel\nChannel positions                        : Front: C\nSampling rate                            : 48.0 KHz\nBit depth                                : 16 bits\nCompression mode                         : Lossy\nDelay relative to video                  : -67ms\nStream size                              : 127 MiB (4%)\nDefault                                  : Yes\nForced                                   : No\n\nâ– â– â– â– â– â– â– â– â– â– â– â– â– â– â– â– â– â– â– â– â– â– â– â– â– â– â– â– â– â– â– â– â– â– â– â– â– â– â– â– â– â– â– â– â– â– â– â– â– â– â– â– â– â– â– â– â– â– â– â– â– â– â– â– â– â– â– â– â– â– â– â– \nâ– â– â– â– â– â– â– â– â– â– â– â– â– â– â– â– â– â– â– â– â– â– â– â– â– â– â– â– â– â– â– â– â– â– â– â– â– â– â– â– â– â– â– â– â– â– â– â– â– â– â– â– â– â– â– â– â– â– â– â– â– â– â– â– â– â– â– â– â– â– â– â– \n\nâ–  SCREENS(Multi)-01: &lt;a href=&quot;\nhttp://i.imgur.com/NR23S6e.jpg&quot; rel=&quot;nofollow&quot; target=&quot;_NEW&quot;&gt;\nhttp://i.imgur.com/NR23S6e.jpg&lt;/a&gt;\n\nâ–  SCREENS(Multi)-02: &lt;a href=&quot;\nhttp://i.imgur.com/ilCBzL2.jpg&quot; rel=&quot;nofollow&quot; target=&quot;_NEW&quot;&gt;\nhttp://i.imgur.com/ilCBzL2.jpg&lt;/a&gt;\n\nâ–  SCREENS(Multi)-03: &lt;a href=&quot;\nhttp://i.imgur.com/umMAqyb.jpg&quot; rel=&quot;nofollow&quot; target=&quot;_NEW&quot;&gt;\nhttp://i.imgur.com/umMAqyb.jpg&lt;/a&gt;\n\nâ–  SCREENS(Multi)-04: &lt;a href=&quot;\nhttp://i.imgur.com/y3hGLpx.jpg&quot; rel=&quot;nofollow&quot; target=&quot;_NEW&quot;&gt;\nhttp://i.imgur.com/y3hGLpx.jpg&lt;/a&gt;\n\nâ–  THUMBNAILS: &lt;a href=&quot;\nhttp://i.imgur.com/Qq7hjev.jpg&quot; rel=&quot;nofollow&quot; target=&quot;_NEW&quot;&gt;\nhttp://i.imgur.com/Qq7hjev.jpg&lt;/a&gt;\n\nâ–  IMDB IMAGE: &lt;a href=&quot;\nhttp://i.imgur.com/JXYHfNp.jpg&quot; rel=&quot;nofollow&quot; target=&quot;_NEW&quot;&gt;\nhttp://i.imgur.com/JXYHfNp.jpg&lt;/a&gt;\n\nâ–  DVD FRONT COVER: &lt;a href=&quot;\nhttp://i.imgur.com/7Gl7q8j.jpg&quot; rel=&quot;nofollow&quot; target=&quot;_NEW&quot;&gt;\nhttp://i.imgur.com/7Gl7q8j.jpg&lt;/a&gt;\n\nâ–  MOVIE POSTER: &lt;a href=&quot;\nhttp://i.imgur.com/EpaWLQa.jpg&quot; rel=&quot;nofollow&quot; target=&quot;_NEW&quot;&gt;\nhttp://i.imgur.com/EpaWLQa.jpg&lt;/a&gt;\n\nâ–  CAST MEMBERS: &lt;a href=&quot;\nhttp://i.imgur.com/4aFGBIO.jpg&quot; rel=&quot;nofollow&quot; target=&quot;_NEW&quot;&gt;\nhttp://i.imgur.com/4aFGBIO.jpg&lt;/a&gt;\n\nâ–  IMDB: &lt;a href=&quot;\nhttp://www.imdb.com/title/tt0047573/&quot; rel=&quot;nofollow&quot; target=&quot;_NEW&quot;&gt;\nhttp://www.imdb.com/title/tt0047573/&lt;/a&gt;\n\nâ–  WIKIPEDIA: &lt;a href=&quot;\nhttp://en.wikipedia.org/wiki/Them!&quot; rel=&quot;nofollow&quot; target=&quot;_NEW&quot;&gt;\nhttp://en.wikipedia.org/wiki/Them!&lt;/a&gt;\n\n\nâ– \nâ–  PLEASE CONTINUE TO SEED FOR AS LONG AS YOU CAN SO, THAT, OTHERS MAY ENJOY THIS TOO!\nâ– \n\nThank you!\n","torrent":{"xt":"urn:btih:29e66becacef1301adc7f5a79a22056d7930ea8d","amp;dn":"THEM.1954.DVDRip.MKV.480p.MPEG.AC3-Agent666","amp;tr":["udp%3A%2F%2Ftracker.openbittorrent.com%3A80","udp%3A%2F%2Fopen.demonii.com%3A1337","udp%3A%2F%2Ftracker.coppersurfer.tk%3A6969","udp%3A%2F%2Fexodus.desync.com%3A6969"],"infoHash":"29e66becacef1301adc7f5a79a22056d7930ea8d","infoHashBuffer":{"type":"Buffer","data":[41,230,107,236,172,239,19,1,173,199,245,167,154,34,5,109,121,48,234,141]},"announce":[],"urlList":[]}}